<svg width="160" height="28" viewBox="0 0 160 28" fill="none" xmlns="http://www.w3.org/2000/svg">
<mask id="path-1-outside-1_238_726" maskUnits="userSpaceOnUse" x="0.159973" y="0" width="160" height="28" fill="black">
<rect fill="white" x="0.159973" width="160" height="28"/>
<path d="M8.10797 1C10.508 1 12.416 1.636 13.832 2.908C15.272 4.18 15.992 5.92 15.992 8.128C15.992 9.496 15.656 10.888 14.984 12.304C14.24 13.84 13.496 15.076 12.752 16.012C12.008 16.948 11.396 17.704 10.916 18.28C10.436 18.856 9.88397 19.48 9.25997 20.152C8.63597 20.8 8.09597 21.352 7.63997 21.808C7.20797 22.264 6.69197 22.792 6.09197 23.392C5.51597 23.968 5.08397 24.4 4.79597 24.688H13.076C14.108 24.688 14.9 24.472 15.452 24.04C16.028 23.608 16.64 22.804 17.288 21.628H17.648L15.92 26.704H1.15997V26.344C3.70397 23.992 6.23597 21.208 8.75597 17.992C10.076 16.288 11.156 14.572 11.996 12.844C12.86 11.092 13.292 9.568 13.292 8.272C13.292 6.328 12.836 4.816 11.924 3.736C11.012 2.632 9.77597 2.08 8.21597 2.08C6.46397 2.08 5.08397 2.548 4.07597 3.484C3.09197 4.42 2.62397 5.728 2.67197 7.408L2.31197 7.444L1.66397 3.34C2.59997 2.404 3.95597 1.72 5.73197 1.288C6.54797 1.096 7.33997 1 8.10797 1Z"/>
<path d="M33.3471 17.74V24.436C33.3471 24.964 33.5391 25.42 33.9231 25.804C34.3071 26.164 34.7751 26.344 35.3271 26.344H35.7231V26.704H28.5951L28.6311 26.344H28.9911C29.5431 26.344 30.0111 26.164 30.3951 25.804C30.7791 25.444 30.9831 25 31.0071 24.472V17.74H19.8111V17.38L32.9871 1H33.3471V15.76H34.8951C35.5191 15.76 35.9391 15.712 36.1551 15.616C36.3951 15.52 36.6351 15.328 36.8751 15.04H37.2351L36.4791 17.74H33.3471ZM31.0071 15.76V5.248L22.5111 15.76H31.0071Z"/>
<path d="M71.0033 26.704H69.6713C67.3193 26.704 65.5553 26.02 64.3793 24.652L56.4593 15.976L64.1993 6.868C64.4633 6.532 64.4994 6.22 64.3074 5.932C64.1394 5.62 63.8393 5.464 63.4073 5.464H63.0833V5.104H70.4274V5.464H70.2833C68.8193 5.464 67.6554 5.896 66.7914 6.76L58.9433 15.148L67.8714 24.868C68.3034 25.396 68.7474 25.768 69.2034 25.984C69.6594 26.2 70.2594 26.32 71.0033 26.344V26.704ZM57.3233 26.344H57.7193V26.704H50.3393V26.344H50.7713C51.3473 26.344 51.8393 26.152 52.2473 25.768C52.6553 25.384 52.8713 24.928 52.8953 24.4V7.408C52.8713 6.88 52.6553 6.424 52.2473 6.04C51.8393 5.656 51.3473 5.464 50.7713 5.464H50.3393V5.104H57.7193V5.464H57.2873C56.5193 5.464 55.9194 5.776 55.4874 6.4C55.2954 6.688 55.1993 7.012 55.1993 7.372V24.436C55.1993 24.964 55.4033 25.42 55.8113 25.804C56.2433 26.164 56.7473 26.344 57.3233 26.344Z"/>
<path d="M94.5842 26.344H94.8722V26.704H87.4922V26.344H87.7802C88.2362 26.344 88.5842 26.188 88.8242 25.876C89.0642 25.564 89.1842 25.276 89.1842 25.012C89.1842 24.724 89.1362 24.448 89.0402 24.184L87.0602 19.396H77.9522L75.9722 24.076C75.8522 24.388 75.7922 24.688 75.7922 24.976C75.7922 25.24 75.9122 25.54 76.1522 25.876C76.3922 26.188 76.7522 26.344 77.2322 26.344H77.5202V26.704H70.6442V26.344H70.9322C71.4362 26.344 71.9402 26.176 72.4442 25.84C72.9722 25.48 73.4042 24.952 73.7402 24.256C78.9962 13.024 81.7322 7.144 81.9482 6.616C82.3562 5.608 82.5722 4.936 82.5962 4.6H82.9202L91.8122 24.256C92.5082 25.648 93.4322 26.344 94.5842 26.344ZM78.4202 18.316H86.6282L82.5962 8.452L78.4202 18.316Z"/>
<path d="M103.407 6.22H101.499V24.4C101.523 25.144 101.859 25.708 102.507 26.092C102.819 26.26 103.167 26.344 103.551 26.344H104.019L104.055 26.704H96.6753V26.344H97.1793C97.7313 26.344 98.1993 26.164 98.5833 25.804C98.9913 25.42 99.1953 24.964 99.1953 24.436V7.336C99.1953 6.808 98.9913 6.364 98.5833 6.004C98.1993 5.644 97.7313 5.464 97.1793 5.464H96.6753V5.104H105.711C107.967 5.104 109.743 5.62 111.039 6.652C112.359 7.684 113.019 9.04 113.019 10.72C113.019 12.4 112.491 13.804 111.435 14.932C110.379 16.06 109.035 16.708 107.403 16.876C108.171 17.212 109.095 18.148 110.175 19.684C110.151 19.684 110.559 20.212 111.399 21.268C112.263 22.324 112.947 23.152 113.451 23.752C113.979 24.328 114.411 24.772 114.747 25.084C115.635 25.924 116.655 26.344 117.807 26.344V26.704H116.691C114.795 26.704 113.307 26.332 112.227 25.588C111.411 25.036 110.667 24.352 109.995 23.536C109.851 23.344 109.239 22.504 108.159 21.016C107.103 19.504 106.539 18.7 106.467 18.604C105.171 16.996 103.959 16.192 102.831 16.192V15.832C105.639 15.832 107.331 15.688 107.907 15.4C108.699 14.992 109.239 14.56 109.527 14.104C110.127 13.144 110.427 12.088 110.427 10.936C110.427 9.472 109.995 8.344 109.131 7.552C108.267 6.76 107.103 6.328 105.639 6.256C104.991 6.232 104.247 6.22 103.407 6.22Z"/>
<path d="M141.026 26.344H141.314V26.704H133.934V26.344H134.222C134.678 26.344 135.026 26.188 135.266 25.876C135.506 25.564 135.626 25.276 135.626 25.012C135.626 24.724 135.578 24.448 135.482 24.184L133.502 19.396H124.394L122.414 24.076C122.294 24.388 122.234 24.688 122.234 24.976C122.234 25.24 122.354 25.54 122.594 25.876C122.834 26.188 123.194 26.344 123.674 26.344H123.962V26.704H117.086V26.344H117.374C117.878 26.344 118.382 26.176 118.886 25.84C119.414 25.48 119.846 24.952 120.182 24.256C125.438 13.024 128.174 7.144 128.39 6.616C128.798 5.608 129.014 4.936 129.038 4.6H129.362L138.254 24.256C138.95 25.648 139.874 26.344 141.026 26.344ZM124.862 18.316H133.07L129.038 8.452L124.862 18.316Z"/>
<path d="M150.197 6.148V24.436C150.221 25.18 150.581 25.732 151.277 26.092C151.589 26.26 151.937 26.344 152.321 26.344H152.717V26.704H145.301V26.344H145.733C146.309 26.344 146.801 26.152 147.209 25.768C147.617 25.384 147.833 24.928 147.857 24.4V6.148H141.341C140.789 6.148 140.345 6.328 140.009 6.688C139.697 7.048 139.541 7.48 139.541 7.984V8.56H139.145V4.492C139.625 4.684 140.297 4.828 141.161 4.924C142.049 5.02 142.709 5.068 143.141 5.068H154.877C156.605 5.068 157.949 4.876 158.909 4.492V8.56H158.513V7.984C158.513 7.48 158.345 7.048 158.009 6.688C157.673 6.328 157.241 6.148 156.713 6.148H150.197Z"/>
</mask>
<path d="M8.10797 1C10.508 1 12.416 1.636 13.832 2.908C15.272 4.18 15.992 5.92 15.992 8.128C15.992 9.496 15.656 10.888 14.984 12.304C14.24 13.84 13.496 15.076 12.752 16.012C12.008 16.948 11.396 17.704 10.916 18.28C10.436 18.856 9.88397 19.48 9.25997 20.152C8.63597 20.8 8.09597 21.352 7.63997 21.808C7.20797 22.264 6.69197 22.792 6.09197 23.392C5.51597 23.968 5.08397 24.4 4.79597 24.688H13.076C14.108 24.688 14.9 24.472 15.452 24.04C16.028 23.608 16.64 22.804 17.288 21.628H17.648L15.92 26.704H1.15997V26.344C3.70397 23.992 6.23597 21.208 8.75597 17.992C10.076 16.288 11.156 14.572 11.996 12.844C12.86 11.092 13.292 9.568 13.292 8.272C13.292 6.328 12.836 4.816 11.924 3.736C11.012 2.632 9.77597 2.08 8.21597 2.08C6.46397 2.08 5.08397 2.548 4.07597 3.484C3.09197 4.42 2.62397 5.728 2.67197 7.408L2.31197 7.444L1.66397 3.34C2.59997 2.404 3.95597 1.72 5.73197 1.288C6.54797 1.096 7.33997 1 8.10797 1Z" fill="white"/>
<path d="M33.3471 17.74V24.436C33.3471 24.964 33.5391 25.42 33.9231 25.804C34.3071 26.164 34.7751 26.344 35.3271 26.344H35.7231V26.704H28.5951L28.6311 26.344H28.9911C29.5431 26.344 30.0111 26.164 30.3951 25.804C30.7791 25.444 30.9831 25 31.0071 24.472V17.74H19.8111V17.38L32.9871 1H33.3471V15.76H34.8951C35.5191 15.76 35.9391 15.712 36.1551 15.616C36.3951 15.52 36.6351 15.328 36.8751 15.04H37.2351L36.4791 17.74H33.3471ZM31.0071 15.76V5.248L22.5111 15.76H31.0071Z" fill="white"/>
<path d="M71.0033 26.704H69.6713C67.3193 26.704 65.5553 26.02 64.3793 24.652L56.4593 15.976L64.1993 6.868C64.4633 6.532 64.4994 6.22 64.3074 5.932C64.1394 5.62 63.8393 5.464 63.4073 5.464H63.0833V5.104H70.4274V5.464H70.2833C68.8193 5.464 67.6554 5.896 66.7914 6.76L58.9433 15.148L67.8714 24.868C68.3034 25.396 68.7474 25.768 69.2034 25.984C69.6594 26.2 70.2594 26.32 71.0033 26.344V26.704ZM57.3233 26.344H57.7193V26.704H50.3393V26.344H50.7713C51.3473 26.344 51.8393 26.152 52.2473 25.768C52.6553 25.384 52.8713 24.928 52.8953 24.4V7.408C52.8713 6.88 52.6553 6.424 52.2473 6.04C51.8393 5.656 51.3473 5.464 50.7713 5.464H50.3393V5.104H57.7193V5.464H57.2873C56.5193 5.464 55.9194 5.776 55.4874 6.4C55.2954 6.688 55.1993 7.012 55.1993 7.372V24.436C55.1993 24.964 55.4033 25.42 55.8113 25.804C56.2433 26.164 56.7473 26.344 57.3233 26.344Z" fill="white"/>
<path d="M94.5842 26.344H94.8722V26.704H87.4922V26.344H87.7802C88.2362 26.344 88.5842 26.188 88.8242 25.876C89.0642 25.564 89.1842 25.276 89.1842 25.012C89.1842 24.724 89.1362 24.448 89.0402 24.184L87.0602 19.396H77.9522L75.9722 24.076C75.8522 24.388 75.7922 24.688 75.7922 24.976C75.7922 25.24 75.9122 25.54 76.1522 25.876C76.3922 26.188 76.7522 26.344 77.2322 26.344H77.5202V26.704H70.6442V26.344H70.9322C71.4362 26.344 71.9402 26.176 72.4442 25.84C72.9722 25.48 73.4042 24.952 73.7402 24.256C78.9962 13.024 81.7322 7.144 81.9482 6.616C82.3562 5.608 82.5722 4.936 82.5962 4.6H82.9202L91.8122 24.256C92.5082 25.648 93.4322 26.344 94.5842 26.344ZM78.4202 18.316H86.6282L82.5962 8.452L78.4202 18.316Z" fill="white"/>
<path d="M103.407 6.22H101.499V24.4C101.523 25.144 101.859 25.708 102.507 26.092C102.819 26.26 103.167 26.344 103.551 26.344H104.019L104.055 26.704H96.6753V26.344H97.1793C97.7313 26.344 98.1993 26.164 98.5833 25.804C98.9913 25.42 99.1953 24.964 99.1953 24.436V7.336C99.1953 6.808 98.9913 6.364 98.5833 6.004C98.1993 5.644 97.7313 5.464 97.1793 5.464H96.6753V5.104H105.711C107.967 5.104 109.743 5.62 111.039 6.652C112.359 7.684 113.019 9.04 113.019 10.72C113.019 12.4 112.491 13.804 111.435 14.932C110.379 16.06 109.035 16.708 107.403 16.876C108.171 17.212 109.095 18.148 110.175 19.684C110.151 19.684 110.559 20.212 111.399 21.268C112.263 22.324 112.947 23.152 113.451 23.752C113.979 24.328 114.411 24.772 114.747 25.084C115.635 25.924 116.655 26.344 117.807 26.344V26.704H116.691C114.795 26.704 113.307 26.332 112.227 25.588C111.411 25.036 110.667 24.352 109.995 23.536C109.851 23.344 109.239 22.504 108.159 21.016C107.103 19.504 106.539 18.7 106.467 18.604C105.171 16.996 103.959 16.192 102.831 16.192V15.832C105.639 15.832 107.331 15.688 107.907 15.4C108.699 14.992 109.239 14.56 109.527 14.104C110.127 13.144 110.427 12.088 110.427 10.936C110.427 9.472 109.995 8.344 109.131 7.552C108.267 6.76 107.103 6.328 105.639 6.256C104.991 6.232 104.247 6.22 103.407 6.22Z" fill="white"/>
<path d="M141.026 26.344H141.314V26.704H133.934V26.344H134.222C134.678 26.344 135.026 26.188 135.266 25.876C135.506 25.564 135.626 25.276 135.626 25.012C135.626 24.724 135.578 24.448 135.482 24.184L133.502 19.396H124.394L122.414 24.076C122.294 24.388 122.234 24.688 122.234 24.976C122.234 25.24 122.354 25.54 122.594 25.876C122.834 26.188 123.194 26.344 123.674 26.344H123.962V26.704H117.086V26.344H117.374C117.878 26.344 118.382 26.176 118.886 25.84C119.414 25.48 119.846 24.952 120.182 24.256C125.438 13.024 128.174 7.144 128.39 6.616C128.798 5.608 129.014 4.936 129.038 4.6H129.362L138.254 24.256C138.95 25.648 139.874 26.344 141.026 26.344ZM124.862 18.316H133.07L129.038 8.452L124.862 18.316Z" fill="white"/>
<path d="M150.197 6.148V24.436C150.221 25.18 150.581 25.732 151.277 26.092C151.589 26.26 151.937 26.344 152.321 26.344H152.717V26.704H145.301V26.344H145.733C146.309 26.344 146.801 26.152 147.209 25.768C147.617 25.384 147.833 24.928 147.857 24.4V6.148H141.341C140.789 6.148 140.345 6.328 140.009 6.688C139.697 7.048 139.541 7.48 139.541 7.984V8.56H139.145V4.492C139.625 4.684 140.297 4.828 141.161 4.924C142.049 5.02 142.709 5.068 143.141 5.068H154.877C156.605 5.068 157.949 4.876 158.909 4.492V8.56H158.513V7.984C158.513 7.48 158.345 7.048 158.009 6.688C157.673 6.328 157.241 6.148 156.713 6.148H150.197Z" fill="white"/>
<path d="M8.10797 1C10.508 1 12.416 1.636 13.832 2.908C15.272 4.18 15.992 5.92 15.992 8.128C15.992 9.496 15.656 10.888 14.984 12.304C14.24 13.84 13.496 15.076 12.752 16.012C12.008 16.948 11.396 17.704 10.916 18.28C10.436 18.856 9.88397 19.48 9.25997 20.152C8.63597 20.8 8.09597 21.352 7.63997 21.808C7.20797 22.264 6.69197 22.792 6.09197 23.392C5.51597 23.968 5.08397 24.4 4.79597 24.688H13.076C14.108 24.688 14.9 24.472 15.452 24.04C16.028 23.608 16.64 22.804 17.288 21.628H17.648L15.92 26.704H1.15997V26.344C3.70397 23.992 6.23597 21.208 8.75597 17.992C10.076 16.288 11.156 14.572 11.996 12.844C12.86 11.092 13.292 9.568 13.292 8.272C13.292 6.328 12.836 4.816 11.924 3.736C11.012 2.632 9.77597 2.08 8.21597 2.08C6.46397 2.08 5.08397 2.548 4.07597 3.484C3.09197 4.42 2.62397 5.728 2.67197 7.408L2.31197 7.444L1.66397 3.34C2.59997 2.404 3.95597 1.72 5.73197 1.288C6.54797 1.096 7.33997 1 8.10797 1Z" stroke="black" stroke-width="2" mask="url(#path-1-outside-1_238_726)"/>
<path d="M33.3471 17.74V24.436C33.3471 24.964 33.5391 25.42 33.9231 25.804C34.3071 26.164 34.7751 26.344 35.3271 26.344H35.7231V26.704H28.5951L28.6311 26.344H28.9911C29.5431 26.344 30.0111 26.164 30.3951 25.804C30.7791 25.444 30.9831 25 31.0071 24.472V17.74H19.8111V17.38L32.9871 1H33.3471V15.76H34.8951C35.5191 15.76 35.9391 15.712 36.1551 15.616C36.3951 15.52 36.6351 15.328 36.8751 15.04H37.2351L36.4791 17.74H33.3471ZM31.0071 15.76V5.248L22.5111 15.76H31.0071Z" stroke="black" stroke-width="2" mask="url(#path-1-outside-1_238_726)"/>
<path d="M71.0033 26.704H69.6713C67.3193 26.704 65.5553 26.02 64.3793 24.652L56.4593 15.976L64.1993 6.868C64.4633 6.532 64.4994 6.22 64.3074 5.932C64.1394 5.62 63.8393 5.464 63.4073 5.464H63.0833V5.104H70.4274V5.464H70.2833C68.8193 5.464 67.6554 5.896 66.7914 6.76L58.9433 15.148L67.8714 24.868C68.3034 25.396 68.7474 25.768 69.2034 25.984C69.6594 26.2 70.2594 26.32 71.0033 26.344V26.704ZM57.3233 26.344H57.7193V26.704H50.3393V26.344H50.7713C51.3473 26.344 51.8393 26.152 52.2473 25.768C52.6553 25.384 52.8713 24.928 52.8953 24.4V7.408C52.8713 6.88 52.6553 6.424 52.2473 6.04C51.8393 5.656 51.3473 5.464 50.7713 5.464H50.3393V5.104H57.7193V5.464H57.2873C56.5193 5.464 55.9194 5.776 55.4874 6.4C55.2954 6.688 55.1993 7.012 55.1993 7.372V24.436C55.1993 24.964 55.4033 25.42 55.8113 25.804C56.2433 26.164 56.7473 26.344 57.3233 26.344Z" stroke="black" stroke-width="2" mask="url(#path-1-outside-1_238_726)"/>
<path d="M94.5842 26.344H94.8722V26.704H87.4922V26.344H87.7802C88.2362 26.344 88.5842 26.188 88.8242 25.876C89.0642 25.564 89.1842 25.276 89.1842 25.012C89.1842 24.724 89.1362 24.448 89.0402 24.184L87.0602 19.396H77.9522L75.9722 24.076C75.8522 24.388 75.7922 24.688 75.7922 24.976C75.7922 25.24 75.9122 25.54 76.1522 25.876C76.3922 26.188 76.7522 26.344 77.2322 26.344H77.5202V26.704H70.6442V26.344H70.9322C71.4362 26.344 71.9402 26.176 72.4442 25.84C72.9722 25.48 73.4042 24.952 73.7402 24.256C78.9962 13.024 81.7322 7.144 81.9482 6.616C82.3562 5.608 82.5722 4.936 82.5962 4.6H82.9202L91.8122 24.256C92.5082 25.648 93.4322 26.344 94.5842 26.344ZM78.4202 18.316H86.6282L82.5962 8.452L78.4202 18.316Z" stroke="black" stroke-width="2" mask="url(#path-1-outside-1_238_726)"/>
<path d="M103.407 6.22H101.499V24.4C101.523 25.144 101.859 25.708 102.507 26.092C102.819 26.26 103.167 26.344 103.551 26.344H104.019L104.055 26.704H96.6753V26.344H97.1793C97.7313 26.344 98.1993 26.164 98.5833 25.804C98.9913 25.42 99.1953 24.964 99.1953 24.436V7.336C99.1953 6.808 98.9913 6.364 98.5833 6.004C98.1993 5.644 97.7313 5.464 97.1793 5.464H96.6753V5.104H105.711C107.967 5.104 109.743 5.62 111.039 6.652C112.359 7.684 113.019 9.04 113.019 10.72C113.019 12.4 112.491 13.804 111.435 14.932C110.379 16.06 109.035 16.708 107.403 16.876C108.171 17.212 109.095 18.148 110.175 19.684C110.151 19.684 110.559 20.212 111.399 21.268C112.263 22.324 112.947 23.152 113.451 23.752C113.979 24.328 114.411 24.772 114.747 25.084C115.635 25.924 116.655 26.344 117.807 26.344V26.704H116.691C114.795 26.704 113.307 26.332 112.227 25.588C111.411 25.036 110.667 24.352 109.995 23.536C109.851 23.344 109.239 22.504 108.159 21.016C107.103 19.504 106.539 18.7 106.467 18.604C105.171 16.996 103.959 16.192 102.831 16.192V15.832C105.639 15.832 107.331 15.688 107.907 15.4C108.699 14.992 109.239 14.56 109.527 14.104C110.127 13.144 110.427 12.088 110.427 10.936C110.427 9.472 109.995 8.344 109.131 7.552C108.267 6.76 107.103 6.328 105.639 6.256C104.991 6.232 104.247 6.22 103.407 6.22Z" stroke="black" stroke-width="2" mask="url(#path-1-outside-1_238_726)"/>
<path d="M141.026 26.344H141.314V26.704H133.934V26.344H134.222C134.678 26.344 135.026 26.188 135.266 25.876C135.506 25.564 135.626 25.276 135.626 25.012C135.626 24.724 135.578 24.448 135.482 24.184L133.502 19.396H124.394L122.414 24.076C122.294 24.388 122.234 24.688 122.234 24.976C122.234 25.24 122.354 25.54 122.594 25.876C122.834 26.188 123.194 26.344 123.674 26.344H123.962V26.704H117.086V26.344H117.374C117.878 26.344 118.382 26.176 118.886 25.84C119.414 25.48 119.846 24.952 120.182 24.256C125.438 13.024 128.174 7.144 128.39 6.616C128.798 5.608 129.014 4.936 129.038 4.6H129.362L138.254 24.256C138.95 25.648 139.874 26.344 141.026 26.344ZM124.862 18.316H133.07L129.038 8.452L124.862 18.316Z" stroke="black" stroke-width="2" mask="url(#path-1-outside-1_238_726)"/>
<path d="M150.197 6.148V24.436C150.221 25.18 150.581 25.732 151.277 26.092C151.589 26.26 151.937 26.344 152.321 26.344H152.717V26.704H145.301V26.344H145.733C146.309 26.344 146.801 26.152 147.209 25.768C147.617 25.384 147.833 24.928 147.857 24.4V6.148H141.341C140.789 6.148 140.345 6.328 140.009 6.688C139.697 7.048 139.541 7.48 139.541 7.984V8.56H139.145V4.492C139.625 4.684 140.297 4.828 141.161 4.924C142.049 5.02 142.709 5.068 143.141 5.068H154.877C156.605 5.068 157.949 4.876 158.909 4.492V8.56H158.513V7.984C158.513 7.48 158.345 7.048 158.009 6.688C157.673 6.328 157.241 6.148 156.713 6.148H150.197Z" stroke="black" stroke-width="2" mask="url(#path-1-outside-1_238_726)"/>
</svg>
