<svg width="24" height="24" viewBox="0 0 24 24" fill="none" xmlns="http://www.w3.org/2000/svg">
<g clip-path="url(#clip0_102_103)">
<path d="M8.37996 17.5563C7.22678 17.5563 6.29199 18.4912 6.29199 19.6443C6.29199 20.7975 7.22682 21.7323 8.37996 21.7323C9.53313 21.7323 10.4679 20.7975 10.4679 19.6443C10.468 18.4912 9.53313 17.5563 8.37996 17.5563ZM8.37996 20.8043C7.73931 20.8043 7.21999 20.285 7.21999 19.6444C7.21999 19.0037 7.73931 18.4844 8.37996 18.4844C9.0206 18.4844 9.53993 19.0037 9.53993 19.6444C9.53997 20.285 9.0206 20.8043 8.37996 20.8043Z" fill="white"/>
<path d="M17.1958 17.5563C16.0426 17.5563 15.1078 18.4912 15.1078 19.6443C15.1078 20.7975 16.0426 21.7323 17.1958 21.7323C18.3489 21.7323 19.2837 20.7975 19.2837 19.6443C19.2837 18.4912 18.3489 17.5563 17.1958 17.5563ZM17.1958 20.8043C16.5551 20.8043 16.0358 20.285 16.0358 19.6444C16.0358 19.0037 16.5551 18.4844 17.1958 18.4844C17.8364 18.4844 18.3557 19.0037 18.3557 19.6444C18.3558 20.285 17.8364 20.8043 17.1958 20.8043Z" fill="white"/>
<path d="M21.9054 5.37651C21.8088 5.27095 21.6766 5.20488 21.5343 5.19089L6.43118 4.98209L6.01358 3.70609C5.7194 2.8531 4.92062 2.27725 4.01838 2.2677H2.464C2.20773 2.2677 2 2.47543 2 2.7317C2 2.98796 2.20773 3.19569 2.464 3.19569H4.01838C4.52288 3.20684 4.96711 3.53078 5.13199 4.0077L8.07837 12.8932L7.8464 13.4268C7.58764 14.094 7.66535 14.845 8.05519 15.4452C8.4413 16.0346 9.09087 16.3984 9.79519 16.4196H18.8199C19.0762 16.4196 19.2839 16.2118 19.2839 15.9556C19.2839 15.6993 19.0762 15.4916 18.8199 15.4916H9.79515C9.3974 15.4816 9.03128 15.2724 8.82075 14.9348C8.61257 14.6013 8.56981 14.1904 8.70476 13.8212L8.89038 13.4036L18.6575 12.3828C19.7304 12.2646 20.6129 11.4843 20.8615 10.434L21.9751 5.77083C22.0253 5.63655 21.9987 5.48552 21.9054 5.37651ZM19.9567 10.2252C19.8061 10.9013 19.232 11.4001 18.5415 11.4548L8.89038 12.4524L6.73278 5.91009L20.9543 6.11888L19.9567 10.2252Z" fill="white"/>
</g>
<defs>
<clipPath id="clip0_102_103">
<rect width="20" height="20" fill="white" transform="translate(2 2)"/>
</clipPath>
</defs>
</svg>
