<svg width="32" height="32" viewBox="0 0 32 32" fill="none" xmlns="http://www.w3.org/2000/svg">
<g clip-path="url(#clip0_406_1952)">
<path d="M11.1731 23.4084C9.63554 23.4084 8.38916 24.6549 8.38916 26.1924C8.38916 27.73 9.6356 28.9764 11.1731 28.9764C12.7107 28.9764 13.9571 27.7299 13.9571 26.1924C13.9571 24.6549 12.7107 23.4084 11.1731 23.4084ZM11.1731 27.7391C10.3189 27.7391 9.62649 27.0467 9.62649 26.1925C9.62649 25.3383 10.3189 24.6458 11.1731 24.6458C12.0273 24.6458 12.7197 25.3383 12.7197 26.1925C12.7198 27.0467 12.0273 27.7391 11.1731 27.7391Z" fill="#D16757"/>
<path d="M22.9275 23.4084C21.3899 23.4084 20.1436 24.6549 20.1436 26.1924C20.1436 27.73 21.39 28.9764 22.9275 28.9764C24.465 28.9764 25.7115 27.7299 25.7115 26.1924C25.7115 24.6549 24.4651 23.4084 22.9275 23.4084ZM22.9275 27.7391C22.0733 27.7391 21.3809 27.0467 21.3809 26.1925C21.3809 25.3383 22.0733 24.6458 22.9275 24.6458C23.7817 24.6458 24.4741 25.3383 24.4741 26.1925C24.4742 27.0467 23.7817 27.7391 22.9275 27.7391Z" fill="#D16757"/>
<path d="M29.2071 7.16864C29.0783 7.0279 28.902 6.9398 28.7122 6.92115L8.57474 6.64275L8.01795 4.94142C7.6257 3.8041 6.56067 3.03629 5.35768 3.02356H3.28517C2.94348 3.02356 2.6665 3.30053 2.6665 3.64222C2.6665 3.98391 2.94348 4.26088 3.28517 4.26088H5.35768C6.03034 4.27574 6.62266 4.70767 6.8425 5.34356L10.771 17.1909L10.4617 17.9024C10.1167 18.792 10.2203 19.7933 10.7401 20.5935C11.2549 21.3794 12.121 21.8645 13.0601 21.8927H25.0931C25.4348 21.8927 25.7118 21.6157 25.7118 21.2741C25.7118 20.9324 25.4348 20.6554 25.0931 20.6554H13.06C12.5297 20.6421 12.0415 20.3631 11.7608 19.913C11.4833 19.4683 11.4263 18.9205 11.6062 18.4282L11.8537 17.8714L24.8765 16.5103C26.307 16.3528 27.4837 15.3124 27.8152 13.9119L29.3 7.6944C29.3669 7.51536 29.3314 7.31399 29.2071 7.16864ZM26.6088 13.6336C26.4079 14.5351 25.6425 15.2 24.7219 15.2731L11.8537 16.6032L8.97688 7.88008L27.9389 8.15847L26.6088 13.6336Z" fill="#D16757"/>
</g>
<defs>
<clipPath id="clip0_406_1952">
<rect width="26.6667" height="26.6667" fill="white" transform="translate(2.6665 2.66663)"/>
</clipPath>
</defs>
</svg>
