<svg width="32" height="32" viewBox="0 0 32 32" fill="none" xmlns="http://www.w3.org/2000/svg">
<g clip-path="url(#clip0_238_728)">
<path d="M21.7721 4.96174C19.5476 4.94986 17.4328 5.92682 15.9999 7.62837C14.576 5.91519 12.4554 4.93545 10.2278 4.96174C6.05185 4.96174 2.66663 8.34696 2.66663 12.5229C2.66663 19.679 15.1561 26.6663 15.6624 26.9364C15.8667 27.0729 16.1332 27.0729 16.3375 26.9364C16.8439 26.6663 29.3333 19.7803 29.3333 12.5229C29.3333 8.34696 25.948 4.96174 21.7721 4.96174ZM15.9999 25.5861C14.0421 24.4385 4.01684 18.3288 4.01684 12.5229C4.01684 9.09269 6.79757 6.31189 10.2278 6.31189C12.3284 6.2843 14.2942 7.34383 15.4261 9.11355C15.6559 9.43046 16.0992 9.50108 16.4161 9.2712C16.4767 9.22727 16.5299 9.17409 16.5738 9.11355C18.451 6.24263 22.3002 5.43708 25.1711 7.31431C26.9287 8.46352 27.9865 10.4229 27.983 12.5228C27.9831 18.3963 17.9577 24.4722 15.9999 25.5861Z" fill="#D16757"/>
</g>
<defs>
<clipPath id="clip0_238_728">
<rect width="26.6667" height="26.6667" fill="#D16757" transform="translate(2.66663 2.66667)"/>
</clipPath>
</defs>
</svg>
