<svg width="32" height="32" viewBox="0 0 32 32" fill="none" xmlns="http://www.w3.org/2000/svg">
<g clip-path="url(#clip0_301_1403)">
<path d="M21.7721 4.9617C19.5476 4.94981 17.4328 5.92677 15.9999 7.62833C14.576 5.91514 12.4554 4.9354 10.2278 4.9617C6.05185 4.9617 2.66663 8.34692 2.66663 12.5228C2.66663 19.679 15.1561 26.6662 15.6624 26.9363C15.8667 27.0728 16.1332 27.0728 16.3375 26.9363C16.8439 26.6662 29.3333 19.7802 29.3333 12.5228C29.3333 8.34692 25.948 4.9617 21.7721 4.9617ZM15.9999 25.5861C14.0421 24.4384 4.01684 18.3288 4.01684 12.5228C4.01684 9.09264 6.79757 6.31184 10.2278 6.31184C12.3284 6.28426 14.2942 7.34379 15.4261 9.11351C15.6559 9.43042 16.0992 9.50104 16.4161 9.27116C16.4767 9.22722 16.5299 9.17405 16.5738 9.11351C18.451 6.24258 22.3002 5.43703 25.1711 7.31426C26.9287 8.46347 27.9865 10.4229 27.983 12.5228C27.9831 18.3962 17.9577 24.4722 15.9999 25.5861Z" fill="#D16757"/>
</g>
<path d="M11.7517 6.11786C18.2368 9.41498 9.43955 6.41492 16.6843 9.09815L20.2397 6.11789L25.6372 7.14275C25.6372 7.14275 28.7283 11.5154 28.2089 13.9395C27.6894 16.3636 16.1383 26.2753 16.1383 26.2753C16.1383 26.2753 7.22339 18.2336 4.69543 16.329C2.16748 14.4243 5.26666 2.82073 11.7517 6.11786Z" fill="#D16757" stroke="#D16757"/>
<defs>
<clipPath id="clip0_301_1403">
<rect width="26.6667" height="26.6667" fill="white" transform="translate(2.66663 2.66663)"/>
</clipPath>
</defs>
</svg>
