<svg width="32" height="32" viewBox="0 0 32 32" fill="none" xmlns="http://www.w3.org/2000/svg">
<g clip-path="url(#clip0_323_1709)">
<path d="M11.1733 23.4085C9.63573 23.4085 8.38934 24.655 8.38934 26.1925C8.38934 27.7301 9.63579 28.9764 11.1733 28.9764C12.7109 28.9764 13.9572 27.73 13.9572 26.1925C13.9573 24.655 12.7109 23.4085 11.1733 23.4085ZM11.1733 27.7392C10.3191 27.7392 9.62667 27.0467 9.62667 26.1925C9.62667 25.3383 10.3191 24.6459 11.1733 24.6459C12.0275 24.6459 12.7199 25.3383 12.7199 26.1925C12.72 27.0467 12.0275 27.7392 11.1733 27.7392Z" fill="#D16757"/>
<path d="M22.9278 23.4085C21.3902 23.4085 20.1438 24.655 20.1438 26.1925C20.1438 27.7301 21.3902 28.9764 22.9278 28.9764C24.4653 28.9764 25.7117 27.73 25.7117 26.1925C25.7117 24.655 24.4653 23.4085 22.9278 23.4085ZM22.9278 27.7392C22.0736 27.7392 21.3811 27.0467 21.3811 26.1925C21.3811 25.3383 22.0736 24.6459 22.9278 24.6459C23.7819 24.6459 24.4744 25.3383 24.4744 26.1925C24.4744 27.0467 23.7819 27.7392 22.9278 27.7392Z" fill="#D16757"/>
<path d="M29.2073 7.1687C29.0784 7.02796 28.9022 6.93986 28.7124 6.92121L8.57493 6.64281L8.01813 4.94148C7.62588 3.80416 6.56085 3.03635 5.35786 3.02362H3.28535C2.94366 3.02362 2.66669 3.30059 2.66669 3.64228C2.66669 3.98397 2.94366 4.26094 3.28535 4.26094H5.35786C6.03052 4.27581 6.62284 4.70773 6.84268 5.34362L10.7712 17.191L10.4619 17.9024C10.1169 18.7921 10.2205 19.7934 10.7403 20.5936C11.2551 21.3795 12.1212 21.8645 13.0603 21.8928H25.0933C25.435 21.8928 25.7119 21.6158 25.7119 21.2741C25.7119 20.9324 25.435 20.6555 25.0933 20.6555H13.0602C12.5299 20.6422 12.0417 20.3632 11.761 19.913C11.4835 19.4684 11.4264 18.9206 11.6064 18.4282L11.8539 17.8714L24.8767 16.5104C26.3072 16.3528 27.4839 15.3124 27.8154 13.912L29.3002 7.69446C29.3671 7.51542 29.3316 7.31405 29.2073 7.1687ZM26.6089 13.6337C26.4081 14.5351 25.6427 15.2001 24.722 15.2731L11.8539 16.6032L8.97707 7.88014L27.939 8.15853L26.6089 13.6337Z" fill="#D16757"/>
</g>
<defs>
<clipPath id="clip0_323_1709">
<rect width="26.6667" height="26.6667" fill="white" transform="translate(2.66669 2.66669)"/>
</clipPath>
</defs>
</svg>
