<svg width="32" height="32" viewBox="0 0 32 32" fill="none" xmlns="http://www.w3.org/2000/svg">
<g clip-path="url(#clip0_323_1704)">
<path d="M21.7721 4.96176C19.5476 4.94987 17.4328 5.92683 15.9999 7.62839C14.576 5.9152 12.4554 4.93546 10.2278 4.96176C6.05185 4.96176 2.66663 8.34698 2.66663 12.5229C2.66663 19.679 15.1561 26.6663 15.6624 26.9364C15.8667 27.0729 16.1332 27.0729 16.3375 26.9364C16.8439 26.6663 29.3333 19.7803 29.3333 12.5229C29.3333 8.34698 25.948 4.96176 21.7721 4.96176ZM15.9999 25.5862C14.0421 24.4385 4.01684 18.3288 4.01684 12.5229C4.01684 9.0927 6.79757 6.3119 10.2278 6.3119C12.3284 6.28432 14.2942 7.34385 15.4261 9.11357C15.6559 9.43048 16.0992 9.5011 16.4161 9.27122C16.4767 9.22728 16.5299 9.17411 16.5738 9.11357C18.451 6.24264 22.3002 5.43709 25.1711 7.31432C26.9287 8.46353 27.9865 10.4229 27.983 12.5228C27.9831 18.3963 17.9577 24.4722 15.9999 25.5862Z" fill="#333333"/>
</g>
<defs>
<clipPath id="clip0_323_1704">
<rect width="26.6667" height="26.6667" fill="white" transform="translate(2.66663 2.66669)"/>
</clipPath>
</defs>
</svg>
