<svg width="24" height="24" viewBox="0 0 24 24" fill="none" xmlns="http://www.w3.org/2000/svg">
<path d="M11.8611 1.20044C5.97326 1.20044 1.2002 6.05051 1.2002 12.0333C1.2002 16.6227 4.01022 20.546 7.97598 22.1244C7.88282 21.2673 7.79858 19.9491 8.01295 19.0134C8.20669 18.168 9.26306 13.6288 9.26306 13.6288C9.26306 13.6288 8.94417 12.9798 8.94417 12.0204C8.94417 10.5141 9.80339 9.38957 10.8732 9.38957C11.7828 9.38957 12.2221 10.0835 12.2221 10.9155C12.2221 11.845 11.6397 13.2346 11.3392 14.5224C11.088 15.6006 11.8713 16.4799 12.9179 16.4799C14.8127 16.4799 16.2692 14.4497 16.2692 11.5193C16.2692 8.9255 14.4351 7.11203 11.8161 7.11203C8.78268 7.11203 7.00219 9.42394 7.00219 11.8132C7.00219 12.7443 7.35516 13.7426 7.79561 14.2854C7.88273 14.3927 7.89549 14.4866 7.86954 14.5961C7.78862 14.9382 7.60877 15.674 7.57346 15.8246C7.52697 16.0229 7.41896 16.065 7.21691 15.9695C5.88544 15.3397 5.05296 13.3616 5.05296 11.7728C5.05296 8.35558 7.49638 5.2173 12.097 5.2173C15.7953 5.2173 18.6693 7.89516 18.6693 11.4739C18.6693 15.2073 16.3527 18.2119 13.1372 18.2119C12.0569 18.2119 11.0414 17.6417 10.6937 16.968C10.6937 16.968 10.1592 19.0364 10.0296 19.5432C9.78889 20.4842 9.13914 21.6636 8.70455 22.3831C9.70202 22.697 10.7621 22.8662 11.8611 22.8662C17.749 22.8662 22.522 18.0161 22.522 12.0333C22.522 6.05051 17.749 1.20044 11.8611 1.20044Z" fill="#D16757"/>
</svg>
