<svg width="25" height="24" viewBox="0 0 25 24" fill="none" xmlns="http://www.w3.org/2000/svg">
<path d="M12.6105 1.20044C6.72271 1.20044 1.94965 6.05051 1.94965 12.0333C1.94965 16.6227 4.75967 20.546 8.72543 22.1244C8.63227 21.2673 8.54803 19.9491 8.7624 19.0134C8.95614 18.168 10.0125 13.6288 10.0125 13.6288C10.0125 13.6288 9.69362 12.9798 9.69362 12.0204C9.69362 10.5141 10.5528 9.38957 11.6227 9.38957C12.5322 9.38957 12.9715 10.0835 12.9715 10.9155C12.9715 11.845 12.3892 13.2346 12.0886 14.5224C11.8375 15.6006 12.6208 16.4799 13.6673 16.4799C15.5621 16.4799 17.0187 14.4497 17.0187 11.5193C17.0187 8.9255 15.1845 7.11203 12.5655 7.11203C9.53213 7.11203 7.75164 9.42394 7.75164 11.8132C7.75164 12.7443 8.10461 13.7426 8.54506 14.2854C8.63219 14.3927 8.64495 14.4866 8.61899 14.5961C8.53807 14.9382 8.35822 15.674 8.32291 15.8246C8.27642 16.0229 8.16841 16.065 7.96636 15.9695C6.63489 15.3397 5.80241 13.3616 5.80241 11.7728C5.80241 8.35558 8.24583 5.2173 12.8465 5.2173C16.5447 5.2173 19.4187 7.89516 19.4187 11.4739C19.4187 15.2073 17.1021 18.2119 13.8867 18.2119C12.8064 18.2119 11.7908 17.6417 11.4432 16.968C11.4432 16.968 10.9086 19.0364 10.779 19.5432C10.5383 20.4842 9.88859 21.6636 9.454 22.3831C10.4515 22.697 11.5115 22.8662 12.6105 22.8662C18.4984 22.8662 23.2715 18.0161 23.2715 12.0333C23.2715 6.05051 18.4984 1.20044 12.6105 1.20044Z" fill="#D16757"/>
</svg>
