<svg width="25" height="23" viewBox="0 0 25 23" fill="none" xmlns="http://www.w3.org/2000/svg">
<path fill-rule="evenodd" clip-rule="evenodd" d="M12.1833 5.82836C5.37696 8.99153 0.453725 11.3053 0.406006 11.3633C0.360912 11.4182 0.323975 11.5111 0.323975 11.5698C0.323975 11.6285 0.360912 11.7211 0.406006 11.7754C0.509318 11.8998 7.13543 15.1557 7.28533 15.1557C7.38424 15.1557 9.27677 13.7698 12.8912 11.0507C13.3512 10.7045 13.7403 10.4214 13.7559 10.4214C13.7714 10.4214 12.6656 11.5688 11.2984 12.9711C9.93119 14.3735 8.80052 15.5706 8.78576 15.6313C8.77099 15.692 8.87468 17.2393 9.01624 19.0698L9.27358 22.3979L9.39513 22.5034C9.46198 22.5614 9.5546 22.6089 9.60091 22.6089C9.64722 22.6089 9.75054 22.5614 9.83051 22.5034C9.91043 22.4454 10.718 21.5331 11.6251 20.476C12.5321 19.419 13.3003 18.526 13.3321 18.4916C13.3796 18.4402 13.777 18.614 15.5636 19.4677C16.7592 20.039 17.797 20.5081 17.8698 20.5102C17.9453 20.5123 18.0439 20.4722 18.0992 20.417C18.1676 20.3486 19.09 17.4758 21.2359 10.648C22.9078 5.32844 24.2891 0.898423 24.3053 0.803595C24.3302 0.65861 24.3157 0.611923 24.2144 0.510626C24.1481 0.444345 24.0454 0.390813 23.9862 0.39161C23.9271 0.392454 18.6158 2.839 12.1833 5.82836Z" fill="#333333"/>
</svg>
