<svg width="25" height="24" viewBox="0 0 25 24" fill="none" xmlns="http://www.w3.org/2000/svg">
<rect x="1.74945" y="1" width="22" height="22" rx="11" fill="#D16757"/>
<path d="M12.4893 10.4162V9.88033C12.3033 9.85088 12.1154 9.83474 11.9271 9.83204C10.1038 9.82815 8.48967 11.0097 7.94215 12.7488C7.39463 14.4878 8.04091 16.381 9.53746 17.4222C8.98867 16.8349 8.62161 16.1013 8.48057 15.3099C8.33954 14.5186 8.43056 13.7033 8.74266 12.9626C9.05475 12.2218 9.57458 11.5872 10.2394 11.1354C10.9042 10.6836 11.6856 10.4338 12.4892 10.4163L12.4893 10.4162Z" fill="#333333"/>
<path d="M12.5905 16.5303C13.6099 16.5289 14.5985 15.7909 14.6432 14.7725L14.4925 5.57544H16.1528C16.1189 5.38553 16.1027 5.19289 16.1045 5L13.8336 5V14.0793C13.7958 15.1028 12.9559 15.9136 11.9316 15.9153C11.6255 15.9127 11.2903 15.8367 11.019 15.695C11.1948 15.9386 11.4599 16.1379 11.7271 16.2753C11.9942 16.4127 12.2901 16.5289 12.5905 16.5303ZM19.2539 8.6589V8.15377C18.6428 8.15401 18.0453 7.97371 17.5364 7.6355C17.9825 8.15413 18.5854 8.51338 19.2539 8.6589Z" fill="#333333"/>
<path d="M16.1045 14.0093V9.39275C17.0236 10.0522 18.127 10.4056 19.2582 10.403V8.64606C18.5899 8.50492 17.9856 8.15035 17.5364 7.63579C17.1776 7.40371 16.8699 7.10096 16.632 6.74601C16.3941 6.39106 16.2311 5.99135 16.1528 5.57129H14.4925V14.6639C14.4763 15.0597 14.3373 15.4406 14.0947 15.7537C13.852 16.0668 13.5179 16.2966 13.1387 16.411C12.7595 16.5255 12.354 16.4751 11.9787 16.3485C11.6033 16.222 11.3704 15.9808 11.0443 15.7048C10.668 15.5068 10.3688 15.1886 10.1941 14.8009C10.0195 14.4132 9.9795 13.9783 10.0805 13.5652C10.1815 13.1522 10.4177 12.7848 10.7515 12.5214C11.0853 12.258 11.4976 12.1138 11.9228 12.1117C12.1135 12.1134 12.3029 12.143 12.485 12.1996V10.3767C11.6771 10.3904 10.8633 10.5858 10.1941 11.0387C9.52496 11.4917 9.02932 12.2486 8.71642 12.9936C8.40351 13.7386 8.31413 14.5586 8.45918 15.3535C8.60422 16.1484 8.97743 16.884 9.53329 17.4705C10.2393 17.9473 11.0754 18.1943 11.9272 18.1777C14.2308 18.1777 16.0996 16.3128 16.1045 14.0093Z" fill="#333333"/>
</svg>
