<svg width="24" height="24" viewBox="0 0 24 24" fill="none" xmlns="http://www.w3.org/2000/svg">
<rect x="1" y="1" width="22" height="22" rx="11" fill="#D16757"/>
<path d="M11.7399 10.4162V9.88033C11.5538 9.85088 11.366 9.83474 11.1776 9.83204C9.35438 9.82815 7.74022 11.0097 7.1927 12.7488C6.64518 14.4878 7.29146 16.381 8.78801 17.4222C8.23922 16.8349 7.87216 16.1013 7.73112 15.3099C7.59009 14.5186 7.68111 13.7033 7.9932 12.9626C8.3053 12.2218 8.82512 11.5872 9.48993 11.1354C10.1547 10.6836 10.9361 10.4338 11.7397 10.4163L11.7399 10.4162Z" fill="white"/>
<path d="M11.8411 16.5303C12.8605 16.5289 13.8491 15.7909 13.8937 14.7725L13.743 5.57544H15.4033C15.3694 5.38553 15.3533 5.19289 15.355 5L13.0841 5V14.0793C13.0463 15.1028 12.2064 15.9136 11.1822 15.9153C10.8761 15.9127 10.5408 15.8367 10.2695 15.695C10.4454 15.9386 10.7104 16.1379 10.9776 16.2753C11.2448 16.4127 11.5407 16.5289 11.8411 16.5303ZM18.5044 8.6589V8.15377C17.8934 8.15401 17.2959 7.97371 16.787 7.6355C17.2331 8.15413 17.836 8.51338 18.5044 8.6589Z" fill="white"/>
<path d="M15.355 14.0093V9.39275C16.2742 10.0522 17.3775 10.4056 18.5088 10.403V8.64606C17.8405 8.50492 17.2362 8.15035 16.787 7.63579C16.4282 7.40371 16.1205 7.10096 15.8826 6.74601C15.6447 6.39106 15.4816 5.99135 15.4033 5.57129H13.743V14.6639C13.7269 15.0597 13.5878 15.4406 13.3452 15.7537C13.1026 16.0668 12.7685 16.2966 12.3892 16.411C12.01 16.5255 11.6046 16.4751 11.2292 16.3485C10.8539 16.222 10.621 15.9808 10.2948 15.7048C9.91855 15.5068 9.61931 15.1886 9.44468 14.8009C9.27005 14.4132 9.23005 13.9783 9.33104 13.5652C9.43203 13.1522 9.66821 12.7848 10.002 12.5214C10.3358 12.258 10.7481 12.1138 11.1733 12.1117C11.364 12.1134 11.5535 12.143 11.7356 12.1996V10.3767C10.9276 10.3904 10.1138 10.5858 9.44468 11.0387C8.77551 11.4917 8.27987 12.2486 7.96697 12.9936C7.65406 13.7386 7.56468 14.5586 7.70973 15.3535C7.85477 16.1484 8.22798 16.884 8.78384 17.4705C9.48987 17.9473 10.326 18.1943 11.1778 18.1777C13.4814 18.1777 15.3502 16.3128 15.355 14.0093Z" fill="white"/>
</svg>
