<svg width="24" height="24" viewBox="0 0 24 24" fill="none" xmlns="http://www.w3.org/2000/svg">
<path fill-rule="evenodd" clip-rule="evenodd" d="M23.4001 5.27369C22.5458 5.66565 21.6405 5.92271 20.7138 6.03641C21.6888 5.43394 22.4198 4.48068 22.7697 3.35544C21.8508 3.9205 20.8463 4.31778 19.7994 4.53019C19.1576 3.82189 18.3278 3.32997 17.4165 3.11753C16.5052 2.9051 15.5539 2.98185 14.6846 3.33792C13.8154 3.69399 13.0678 4.31316 12.5378 5.116C12.0078 5.91884 11.7195 6.86874 11.7099 7.84387C11.7088 8.21562 11.7494 8.58623 11.8309 8.94812C9.97381 8.85415 8.15615 8.35487 6.49512 7.48244C4.83408 6.61002 3.36652 5.38381 2.18696 3.88284C1.58896 4.9503 1.40568 6.21663 1.67497 7.42097C1.94426 8.62531 2.6456 9.67592 3.63443 10.3564C2.89226 10.332 2.16608 10.1246 1.51535 9.75113V9.81065C1.51736 10.9341 1.89255 12.0219 2.57684 12.8887C3.26114 13.7555 4.21218 14.3475 5.26774 14.5637C4.86613 14.6785 4.45144 14.7358 4.03506 14.734C3.74088 14.7342 3.44734 14.7054 3.15834 14.6479C3.46023 15.614 4.04341 16.4575 4.82644 17.0608C5.60947 17.664 6.55327 17.9969 7.52617 18.0129C5.55765 19.6023 3.07147 20.3234 0.600098 20.0218C2.74229 21.4461 5.22957 22.2016 7.76905 22.1992C9.51333 22.2193 11.244 21.8771 12.8606 21.1925C14.4771 20.5079 15.9472 19.4945 17.1854 18.2113C18.4235 16.928 19.4051 15.4005 20.073 13.7175C20.7409 12.0345 21.0818 10.2297 21.0759 8.4079C21.0759 8.1973 21.0759 7.98762 21.0636 7.78069C21.9782 7.09589 22.7682 6.24596 23.3966 5.27094" fill="#D16757"/>
</svg>
