<svg width="25" height="24" viewBox="0 0 25 24" fill="none" xmlns="http://www.w3.org/2000/svg">
<g clip-path="url(#clip0_216_231)">
<path fill-rule="evenodd" clip-rule="evenodd" d="M24.1494 5.27369C23.2952 5.66565 22.3898 5.92271 21.4631 6.03641C22.4381 5.43394 23.1691 4.48068 23.5191 3.35544C22.6001 3.9205 21.5956 4.31778 20.5487 4.53019C19.9069 3.82189 19.0772 3.32997 18.1658 3.11753C17.2545 2.9051 16.3032 2.98185 15.434 3.33792C14.5647 3.69399 13.8171 4.31316 13.2871 5.116C12.7571 5.91884 12.4688 6.86874 12.4592 7.84387C12.4582 8.21562 12.4988 8.58623 12.5802 8.94812C10.7231 8.85415 8.90548 8.35487 7.24445 7.48244C5.58341 6.61002 4.11585 5.38381 2.93629 3.88284C2.33828 4.9503 2.15501 6.21663 2.4243 7.42097C2.69359 8.62531 3.39492 9.67592 4.38376 10.3564C3.64159 10.332 2.91541 10.1246 2.26468 9.75113V9.81065C2.26669 10.9341 2.64187 12.0219 3.32617 12.8887C4.01046 13.7555 4.9615 14.3475 6.01707 14.5637C5.61546 14.6785 5.20077 14.7358 4.78439 14.734C4.49021 14.7342 4.19667 14.7054 3.90767 14.6479C4.20955 15.614 4.79273 16.4575 5.57577 17.0608C6.3588 17.664 7.3026 17.9969 8.27549 18.0129C6.30698 19.6023 3.8208 20.3234 1.34943 20.0218C3.49162 21.4461 5.97889 22.2016 8.51838 22.1992C10.2627 22.2193 11.9934 21.8771 13.6099 21.1925C15.2264 20.5079 16.6965 19.4945 17.9347 18.2113C19.1729 16.928 20.1544 15.4005 20.8223 13.7175C21.4902 12.0345 21.8312 10.2297 21.8252 8.4079C21.8252 8.1973 21.8252 7.98762 21.8129 7.78069C22.7275 7.09589 23.5176 6.24596 24.1459 5.27094" fill="#D16757"/>
</g>
<defs>
<clipPath id="clip0_216_231">
<rect width="24" height="24" fill="white" transform="translate(0.749451)"/>
</clipPath>
</defs>
</svg>
