<svg width="25" height="24" viewBox="0 0 25 24" fill="none" xmlns="http://www.w3.org/2000/svg">
<path d="M23.2544 17.2792C23.0358 18.4 22.1036 19.2542 20.9506 19.4125C19.1398 19.6792 16.1225 20 12.7215 20C9.37419 20 6.35685 19.6792 4.49244 19.4125C3.33951 19.2542 2.4073 18.4 2.18871 17.2792C1.96799 16.0542 1.74945 14.2396 1.74945 12C1.74945 9.76042 1.96799 7.94585 2.18871 6.72085C2.4073 5.60001 3.33951 4.74582 4.49244 4.58749C6.30327 4.32082 9.32061 4 12.7215 4C16.1225 4 19.0862 4.32082 20.9506 4.58749C22.1036 4.74582 23.0358 5.60001 23.2544 6.72085C23.4751 7.94585 23.7495 9.76042 23.7495 12C23.6937 14.2396 23.4751 16.0542 23.2544 17.2792ZM10.5272 15.7333L17.1104 12L10.5272 8.26666V15.7333Z" fill="#D16757"/>
</svg>
