<svg width="24" height="24" viewBox="0 0 24 24" fill="none" xmlns="http://www.w3.org/2000/svg">
<path d="M22.5049 17.2792C22.2863 18.4 21.3541 19.2542 20.2012 19.4125C18.3904 19.6792 15.373 20 11.9721 20C8.62474 20 5.6074 19.6792 3.74299 19.4125C2.59006 19.2542 1.65785 18.4 1.43926 17.2792C1.21854 16.0542 1 14.2396 1 12C1 9.76042 1.21854 7.94585 1.43926 6.72085C1.65785 5.60001 2.59006 4.74582 3.74299 4.58749C5.55382 4.32082 8.57116 4 11.9721 4C15.373 4 18.3368 4.32082 20.2012 4.58749C21.3541 4.74582 22.2863 5.60001 22.5049 6.72085C22.7257 7.94585 23 9.76042 23 12C22.9443 14.2396 22.7257 16.0542 22.5049 17.2792ZM9.77777 15.7333L16.361 12L9.77777 8.26666V15.7333Z" fill="#D16757"/>
</svg>
